<?xml version="1.0" encoding="UTF-8"?>
<!-- Created with Inkscape (http://www.inkscape.org/) -->
<svg version="1.1" viewBox="0 0 280.08 185.21" xmlns="http://www.w3.org/2000/svg" xmlns:cc="http://creativecommons.org/ns#" xmlns:dc="http://purl.org/dc/elements/1.1/" xmlns:rdf="http://www.w3.org/1999/02/22-rdf-syntax-ns#">
 <metadata>
  <rdf:RDF>
   <cc:Work rdf:about="">
    <dc:format>image/svg+xml</dc:format>
    <dc:type rdf:resource="http://purl.org/dc/dcmitype/StillImage"/>
    <dc:title/>
   </cc:Work>
  </rdf:RDF>
 </metadata>
 <path d="m48.003 184.83c0-1.0069-2.7257-15.754-4.1618-21.876-0.92404-3.9396-1.6801-7.205-1.6801-7.2566 0-0.0516 0.61398 0.16263 1.3644 0.47616 1.0933 0.45683 1.7355 0.49053 3.2316 0.16965 3.6758-0.78832 4.6283-1.502 8.534-6.3944 3.5271-4.418 4.6275-6.7508 4.9032-10.395l0.20981-2.7741 3.5993 2.4065c7.5167 5.0257 10.279 4.687 19.845-2.4316 7.6339-5.6813 13.521-12.161 16.834-18.529 0.88832-1.7075 1.7092-3.1046 1.8241-3.1046 0.11493 0 1.5095 1.0922 3.099 2.427 3.2435 2.7236 7.0307 6.5613 9.5334 9.6596 0.91976 1.1388 2.9136 3.4247 4.4309 5.0799 2.5825 2.8175 2.7514 3.107 2.6458 4.5391l-0.11272 1.5296-6.0475 0.65179c-8.8298 0.95167-25.266 3.3464-25.683 3.7422-0.51778 0.49117-0.25252 0.46455 7.8244-0.78493 8.4986-1.3147 23.739-3.1369 24.006-2.8699 0.28816 0.28813 0.75448 5.3067 0.50313 5.4149-4.7881 2.0578-8.2062 3.8594-10.62 5.5974-2.5836 1.8602-3.5483 2.8106-2.8532 2.8106 0.0929 0 1.3261-0.8784 2.7403-1.952 2.32-1.7612 9.5217-5.5885 10.541-5.602 0.22564-3e-3 0.66867 0.92299 0.98453 2.0577l0.57424 2.0632-4.8532 3.9975c-9.1598 7.545-13.556 12.208-19.942 21.152-2.4834 3.4779-3.1755 4.7106-2.3633 4.2084 0.17786-0.10993 1.568-1.9484 3.0892-4.0854 5.965-8.3798 10.302-13.017 18.721-20.017 2.8313-2.3538 5.2808-4.3291 5.4437-4.3896 0.16285-0.0605 0.39039 0.25065 0.50564 0.6914 0.15912 0.60848-0.49122 1.6355-2.7024 4.2677-4.5217 5.3826-9.9503 13.542-9.3854 14.107 0.12186 0.12186 0.69738-0.57845 1.2789-1.5563 3.37-5.6665 10.653-15.321 11.557-15.321 0.57102 0 0.13713 0.78466-4.0507 7.3254-4.1132 6.424-8.3853 14.109-8.0371 14.457 0.19976 0.19976 0.82406-0.82298 3.4909-5.7192 1.2-2.203 2.9255-4.981 8.6287-13.892 0.63542-0.9927 1.0588-0.63322 1.791 1.5209 1.3258 3.9004 3.6525 6.3822 7.8104 8.3308 1.9236 0.9015 2.6172 1.016 6.1562 1.016 3.8552 0 4.0851-0.0478 6.8907-1.4344 1.9837-0.9804 3.9515-1.6064 6.2168-1.9777 1.823-0.29885 3.426-0.54631 3.562-0.54996 0.13616-4e-3 0.71347 0.80134 1.2829 1.7888 0.56943 0.98747 1.9888 2.9652 3.1541 4.3949 1.1654 1.4297 2.3297 2.863 2.5874 3.185 0.25771 0.32212 0.57464 0.4796 0.70429 0.34996 0.12966-0.12967-0.7848-1.478-2.0321-2.9961-1.2473-1.5182-2.8688-3.7091-3.6036-4.8688l-1.3357-2.1083 2.5213-0.65393c1.3867-0.35967 2.6757-0.65256 2.8643-0.6509 0.18864 3e-3 0.71333 1.1596 1.166 2.5732 0.86179 2.6913 2.785 6.7383 4.0608 8.5449 1.3405 1.8985 1.1506 0.75834-0.28051-1.6834-1.4666-2.5024-3.3221-6.8883-3.747-8.8579-0.23534-1.0904-0.15398-1.203 1.2737-1.7638 0.83883-0.32951 1.5964-0.48365 1.6836-0.3426 0.15417 0.24947 0.68653 3.7576 1.3281 8.7518l0.31559 2.4568 0.0461-2.6458c0.0254-1.4552-0.20675-4.0827-0.51583-5.839-0.44378-2.5217-0.46354-3.2557-0.094-3.4903 0.62986-0.40005 1.0349-0.38369 1.0349 0.0418 0 0.19286 0.18583 1.6811 0.41293 3.3072 0.22712 1.6262 0.64217 6.0181 0.9223 9.7601l0.50937 6.8034-0.17619-6.8034c-0.0969-3.742-0.39713-8.3933-0.66722-10.336-0.47973-3.4517-0.47299-3.5398 0.29332-3.8348 1.0301-0.39644 1.193-0.18533 1.6889 2.1891 0.56797 2.7194 0.50474 6.9328-0.14862 9.9032-0.65077 2.9585-0.69786 3.6837-0.2073 3.1932 0.47402-0.47405 1.532-6.5968 1.5236-8.8179-4e-3 -0.96021-0.25959-2.9366-0.56882-4.3918-0.51879-2.4413-0.51271-2.6823 0.0788-3.1183 0.35258-0.25985 0.83335-0.47246 1.0684-0.47246 1.1854 0 5.3001 8.9978 9.2473 20.222 1.8486 5.2564 2.6537 7.06 2.6537 5.9446 0-0.71695-4.69-13.644-6.424-17.707-0.87676-2.0541-2.2713-4.8958-3.099-6.3145-1.4319-2.4547-1.4712-2.6053-0.81015-3.1062 0.38211-0.28956 0.80287-0.53189 0.935-0.5385 0.13213-7e-3 1.7337 1.9014 3.5591 4.2402 3.8549 4.9392 9.2502 13.052 12.631 18.993 3.0845 5.421 3.4342 5.9639 3.6808 5.717 0.26887-0.26887-3.3173-6.6254-7.3836-13.088-3.4263-5.4448-4.704-7.2476-9.0373-12.75l-2.7479-3.4893 1.8787-0.95201c1.0333-0.5236 1.9485-0.95201 2.0337-0.95201 0.25207 0 9.6561 10.789 13.51 15.499 1.9569 2.3919 5.4152 6.8143 7.6853 9.8273 2.27 3.013 4.1835 5.5493 4.2521 5.6358 0.0687 0.0866 0.23687 0.0456 0.37367-0.0912 0.50328-0.50328-11.821-16.113-20.58-26.066-2.5548-2.9032-4.5958-5.3207-4.5357-5.3723 0.0602-0.0515 2.3809-1.3244 5.1572-2.8289 5.9753-3.2379 5.1985-3.226 14.218-0.21478 9.7186 3.2448 17.38 6.8285 31.313 14.647 3.7044 2.0785 6.8508 3.6541 6.9926 3.5014 0.14182-0.15266 0.0873-0.34252-0.12054-0.42179-0.20789-0.0793-2.9292-1.5938-6.0475-3.3655-7.0397-3.9999-17.613-9.3661-22.882-11.614-3.3792-1.4414-13.976-5.0863-16.427-5.6501-0.52183-0.12006 0.8829-0.96093 4.5357-2.7151 2.9104-1.3976 6.6523-3.2001 8.3155-4.0058 1.6632-0.80564 6.4285-3.7277 10.59-6.4933 8.4356-5.6067 12.977-8.0821 19.597-10.682 3.8774-1.5229 10.983-3.6885 14.852-4.527l1.1936-0.25859 3.8451 6.9204c12.977 23.357 20.533 42.743 21.368 54.824 0.11872 1.7172 0.15124 6.3384 0.23349 6.876z" fill="#a9a9a9" stroke-width=".26458"/>
 <g transform="translate(-15.497 -112.17)" fill="none">
  <ellipse cx="156.67" cy="264.68" rx="14.174" ry="13.04"/>
  <path d="m165.18 274.7c3.1501-0.37801 6.2999-0.75599 9.9535-1.7009s7.8117-2.457 12.536-4.7247c4.7245-2.2678 10.017-5.2918 14.741-7.8746 4.7246-2.5828 8.8826-4.7248 12.136-6.2901s5.6923-2.5923 8.0858-3.6001"/>
  <path d="m137.96 247.11c0.25197 4.6615 0.50395 9.3232 1.3859 12.788s2.3938 5.7327 3.9057 8.0006"/>
  <ellipse cx="194.85" cy="214.98" rx="8.8824" ry="7.9375"/>
  <ellipse cx="145.71" cy="215.36" rx="6.9926" ry="7.1815"/>
  <path d="m137.96 247.11c-2.3938-2.5198-4.7877-5.0397-6.7406-7.4336s-3.4648-4.6617-7.3074-8.0634-10.016-7.9375-16.19-12.473"/>
  <path d="m155.73 211.58c-0.62975 0.88165-1.2597 1.7635-1.8268 0.81866-0.56712-0.94487-1.0711-3.7168-1.638-5.3545-0.56692-1.6377-1.1969-2.1417-2.8977-2.2677-1.7007-0.12599-4.4729 0.12602-6.9296 1.3858-2.4567 1.2598-4.5988 3.5279-7.1185 5.0398s-5.4175 2.2678-11.213 2.2049c-5.7957-0.0629-14.489-0.94491-23.183-1.8268"/>
  <path d="m137.96 247.11c2.016-3.7801 4.0319-7.5598 6.1368-10.03 2.1049-2.4705 4.1948-3.577 5.4546-3.766 1.2597-0.18902 1.6377 0.56705 1.9528 1.827 0.31501 1.26 0.56696 3.0236 0.063 6.1737-0.50399 3.15-1.7638 7.6852-3.0238 12.221"/>
  <path d="m167.82 255.8c-0.75599-4.6619-1.5119-9.3236-1.3229-12.599 0.18907-3.2758 1.323-5.1658 3.2128-6.1106 1.8897-0.94479 4.536-0.94479 7.2446-0.56683 2.7086 0.37797 5.4807 1.134 7.8115 2.2679 2.3307 1.1339 4.2207 2.6459 5.3546 4.2836s1.5119 3.4017 2.3939 4.7878 2.2678 2.3939 4.2838 2.8979 4.6619 0.50395 7.3076 0.18897c2.6457-0.31499 5.2918-0.94501 7.8745-1.7639 2.5827-0.81892 5.1028-1.827 7.9374-2.2049 2.8346-0.37792 5.9848-0.1259 9.1343 0.12606"/>
  <path d="m191.26 253.15c10.71 2.1419 21.419 4.2838 32.191 8.4414s21.608 10.331 32.443 16.505"/>
  <path d="m140.61 250.51c-6.1733 0.62993-12.347 1.2599-18.143 2.0158-5.7958 0.75597-11.213 1.6379-16.631 2.5199"/>
  <path d="m141.36 260.71c-6.0473 4.7875-12.095 9.5752-16.946 14.615-4.8508 5.0398-8.5044 10.331-12.158 15.623"/>
  <path d="m140.61 256.18c-3.2755 1.2598-6.5513 2.5197-9.1972 3.9686s-4.6616 3.0867-6.6778 4.7248"/>
  <path d="m194.28 259.2c5.5436 6.1736 11.087 12.347 15.938 18.206s9.0084 11.402 13.166 16.946"/>
  <path d="m189.37 260.71c4.4097 5.2916 8.8194 10.583 12.725 16.253s7.3075 11.717 10.709 17.765"/>
  <path d="m141.74 262.98c-2.7716 3.1495-5.5434 6.2993-7.8114 9.3862s-4.0317 6.1105-5.7958 9.1346"/>
  <path d="m189.37 264.49c1.8898 2.7718 3.7797 5.5436 5.9216 10.394 2.1419 4.8507 4.5357 11.78 6.9296 18.71"/>
  <path d="m142.12 264.49c-2.8976 4.4094-5.7954 8.8191-8.0004 12.473-2.2049 3.6539-3.7167 6.5515-5.2288 9.4496"/>
  <path d="m187.48 264.87c1.0079 3.4016 2.0158 6.8034 2.1419 10.016 0.12603 3.2128-0.62988 6.2365-1.3859 9.2606"/>
  <path d="m171.98 270.16c1.2599 2.3938 2.5198 4.7876 4.0318 6.9926 1.512 2.2049 3.2758 4.2207 5.0397 6.2366"/>
  <path d="m185.59 266.38c0.62993 4.4095 1.2599 8.8192 1.5749 12.662s0.315 7.1184 0.315 10.395"/>
  <path d="m179.54 269.79c0.7559 2.7716 1.5119 5.5435 2.5198 7.9374 1.008 2.394 2.2678 4.4097 3.5278 6.4257"/>
  <path d="m183.32 267.14c0.62992 3.0236 1.2599 6.0474 1.5749 8.4413s0.315 4.1576 0.315 5.9218"/>
  <path d="m57.011 266.89c-1.449-1.134-3.3388-2.8978-5.1657-4.7877s-3.5908-3.9058-5.6066-5.4176-4.2837-2.5198-7.8745-2.8978c-3.5908-0.37801-8.5043-0.12604-12.032-0.37801s-5.6696-1.0079-7.2447-2.3309-2.5829-3.2128-3.0868-4.2838c-0.50394-1.071-0.50394-1.3228-0.50394-1.5747 1.3859-0.25198 2.7721-0.50402 5.6064-0.44103 2.8343 0.063 7.119 0.44105 10.269 0.56702 3.1498 0.12598 5.1658-2e-5 6.4886-0.56706s1.9529-1.5751 1.7639-2.8347c-0.18895-1.2596-1.1972-2.7719-3.6539-4.0948s-6.3626-2.4568-9.5755-4.2838-5.7327-4.3467-7.0556-6.3627-1.4489-3.5279-1.1338-4.5988 1.0709-1.7007 1.8268-2.3307c0.88194 0.12599 1.7641 0.25202 3.1497 1.0078s3.2759 2.142 5.4178 3.7169c2.1418 1.5749 4.5357 3.3388 6.8036 4.7877s4.4098 2.5829 6.0477 2.8978c1.638 0.31489 2.772-0.1891 3.0868-1.2598 0.31487-1.0707-0.18924-2.7091-1.0711-4.5988-0.88188-1.8897-2.1419-4.0318-3.9058-7.1815-1.7638-3.1497-4.0317-7.3075-6.2996-11.465 0.25198-0.50397 0.50413-1.0082 1.5745-1.0712 1.0704-0.0629 2.9614 0.31528 4.5361 1.3861 1.5747 1.0708 2.8348 2.8349 4.0317 5.2917s2.3308 5.6066 3.5908 8.1265 2.6458 4.4097 3.7798 5.5437 2.0159 1.512 2.8349 1.3228c0.81896-0.18909 1.575-0.94515 1.7009-2.3936 0.12592-1.4485-0.37822-3.5911-0.88217-5.6069s-1.008-3.9058-1.7639-6.7405c-0.7559-2.8346-1.7639-6.6148-2.1418-8.6937-0.37786-2.0789-0.12606-2.4566 0.12592-2.8346 0 0 0.75595-0.75595 1.2596-0.9448 0.5036-0.18885 1.5126-0.56722 2.5832-0.25234 1.0706 0.31489 2.2049 1.3232 3.2758 2.583s2.0788 2.7718 2.6458 4.5356 0.69297 3.7796 0.81897 6.2366 0.25198 5.3545 0.50396 7.3704c0.25198 2.016 0.62992 3.1498 0.94493 4.5358s0.56696 3.0237 1.3861 3.9057c0.81918 0.88207 2.2049 1.008 3.4018 0.56702 1.1969-0.44103 2.205-1.4491 2.9607-3.1497s1.2599-4.0951 2.0159-5.7329 1.7641-2.5199 2.9607-2.7088c1.1967-0.18891 2.583 0.3152 3.5278 1.3859 0.94481 1.0707 1.4488 2.7088 1.5749 4.0947s-0.12592 2.5197-0.7559 3.4648c-0.62998 0.94509-1.6376 1.7008-2.3937 2.3938-0.75606 0.69302-1.2599 1.3228-1.638 2.5201-0.37813 1.1973-0.63 2.9604-0.882 4.7874-0.25201 1.827-0.50395 3.7166-0.25195 5.8587s1.0078 4.5356 0.94489 7.0554c-0.06295 2.5199-0.94483 5.1655-1.9527 6.9295-1.0079 1.764-2.1417 2.6458-3.1498 3.9689s-1.8898 3.0865-3.5279 4.3466c-1.638 1.2601-4.0314 2.0159-5.7325 2.142-1.7011 0.12604-2.7089-0.37787-4.1578-1.5118z"/>
  <path d="m149.3 146.57c-1.008-2.52-2.0159-5.0398-4.4096-8.1265-2.3937-3.0866-6.1737-6.7406-10.709-9.2604-4.5356-2.5198-9.8273-3.9057-13.166-5.2917-3.3389-1.386-4.7248-2.7718-6.1107-4.1577 1.1339 4.1577 2.2678 8.3153 3.4648 11.969s2.4568 6.8035 4.0948 9.3865 3.6538 4.5987 5.4807 6.1107c1.8269 1.5119 3.4648 2.5199 4.5357 4.4096s1.5749 4.6618 2.0789 7.4337c-5.4177 5.2917-10.835 10.583-14.741 16.757s-6.2996 13.229-9.0714 18.08c-2.7718 4.8508-5.9215 7.4965-7.8744 9.0085s-2.7091 1.8901-3.465 2.268l9.4494 4.9137-7.9375 1.5119c2.2679 2.5198 4.5357 5.0397 6.8036 7.5595"/>
  <path d="m114.9 119.73c3.024 0.756 6.0474 1.5119 8.6305 1.9529 2.583 0.441 4.7248 0.56699 9.4496 1.5749 4.7247 1.008 12.032 2.8978 18.269 6.2996 6.2366 3.4018 11.402 8.3155 16.568 13.229 8.9454-0.62996 17.891-1.2599 25.262-0.31497 7.3706 0.94497 13.166 3.4648 18.962 5.9846-0.12599-2.8978-0.252-5.7959 2.0158-10.079 2.2678-4.2835 6.9299-9.9536 12.221-14.552 5.2916-4.5986 11.213-8.1263 17.135-11.654 0.62996 0.50397 1.26 1.008 2.5828 4.4725s3.3388 9.8904 4.8507 16.001c1.5119 6.1107 2.5198 11.906 1.9529 16.757-0.5669 4.8507-2.7089 8.7566-4.8507 12.662 5.6696 8.5675 11.339 17.135 16.001 25.891 4.6617 8.7564 8.3154 17.702 12.032 24.001s7.4966 9.9534 11.276 13.607c-7.5595 0.88194-15.119 1.7639-22.552 3.6537-7.4334 1.8898-14.741 4.7878-20.663 7.9375-5.9214 3.1497-10.458 6.552-13.796 8.8196-3.3384 2.2676-5.4803 3.4016-7.6225 4.5357"/>
  <path d="m220.36 152.24c-1.008-4.6619-2.0159-9.3236-1.3229-13.607 0.69302-4.2837 3.087-8.1896 7.4335-12.536 4.3465-4.3465 10.647-9.1346 16.946-13.922"/>
  <path d="m220.36 152.24c2.8719 0.62432 5.7958 1.26 8.0635 2.5198s3.9057 3.1498 5.4807 4.4098 3.0869 1.8899 4.5986 2.5198"/>
  <path d="m149.3 146.57c-3.0235 1.2598-6.0473 2.5197-7.8743 3.9056s-2.4569 2.8976-3.087 4.4099"/>
  <path d="m287.26 225.56c-13.733-1.0079-27.466-2.0159-38.427-3.4018s-19.151-3.1498-26.144-5.3547c-6.9925-2.2048-12.789-4.8508-16.757-6.6146-3.9686-1.7638-6.1105-2.6458-8.7563-3.6537s-5.7959-2.142-8.7565-2.394c-2.9606-0.25198-5.7326 0.37803-8.2524 2.6457-2.5198 2.2677-4.7876 6.1735-7.4967 5.2914s-5.8586-6.5512-6.7867-11.391c-0.92807-4.8398 0.29827-8.6415 1.7472-12.358s3.0867-7.2442 4.7246-10.772c-3.1498 4.0318-6.2994 8.0632-8.7563 12.284-2.4569 4.2207-4.2208 8.6304-5.4178 12.284s-1.8269 6.5515-2.4569 9.4496"/>
  <path d="m117.93 226.32c-2.0157 4.1574-4.0316 8.3152-8.2525 12.977-4.2209 4.662-10.646 9.8272-15.056 12.599-4.4098 2.7719-6.8035 3.1499-9.6387 2.1418-2.8352-1.008-6.1105-3.4016-9.3864-5.7955"/>
  <path d="m57.011 266.89c1.2809 5.1235 2.5618 10.247 3.6432 15.329 1.0814 5.0817 1.9634 10.121 2.8453 15.161l232.08-1.8899c-0.25199-4.9137-0.50399-9.8276-2.5199-17.009-2.0159-7.1815-5.7956-16.631-9.9534-25.387-4.1578-8.7565-8.6935-16.82-13.229-24.883"/>
 </g>
 <g transform="translate(-15.497 -112.17)">
  <path d="m129.74 146.61c-4.5552-4.2328-6.4214-6.7484-8.2311-11.096-1.0032-2.4096-3.7308-11.018-4.4516-14.049l-0.24931-1.0486 1.877 1.2631c1.0323 0.6947 4.3465 2.173 7.3648 3.285 8.9219 3.2872 12.065 5.1173 16.856 9.8166 2.6358 2.585 5.0738 6.0168 6.5879 9.2731l0.81792 1.7593-3.1824 1.418c-3.6611 1.6313-6.0715 3.1722-7.1401 5.2669-0.83575 1.6381-2.2126 3.0102-3.9268 4.8105-0.96369-4.7226-1.7789-6.477-6.3224-10.699z" fill="#696969"/>
  <path d="m238.03 160.19c-0.97728-0.39299-5.477-1.4672-6.9262-2.7206-3.1546-2.7286-5.3977-3.9035-9.1338-4.7843l-2.7925-0.65836-0.66159-3.8599c-0.43898-2.561-0.60785-5.0898-0.50178-7.5147 0.14701-3.361 0.28645-3.9099 1.7345-6.8271 2.4595-4.9548 6.5958-9.1093 17.686-17.764 2.4514-1.913 4.6448-3.4781 4.8741-3.4781 1.0197 0 4.2817 9.1816 6.816 19.185 3.3762 13.326 2.1634 21.364-2.5058 29.259-0.81672 0.17802-6.4548 0.0213-8.5892-0.83699z" fill="#696969"/>
  <g stroke-linecap="round">
   <path d="m255.03 171.69c6.1379 9.4829 8.8565 14.362 15.625 28.041 6.7815 13.704 8.6505 16.726 13.465 21.766l3.3736 3.5317-2.2323-0.052c-1.2278-0.0286-3.9442-0.19578-6.0364-0.37118v-3.1e-4c-30.148-2.528-40.252-3.9006-51.581-7.0074-6.0744-1.666-10.666-3.3745-20.841-7.755-12.098-5.2085-14.308-5.9083-18.687-5.9173-4.5316-9e-3 -5.6528 0.53113-9.845 4.7459-2.5398 2.5535-4.2579 3.0429-4.2579 3.0429l-19.158 2.1709s-2.7032-9.3987-6.399-9.3987c-3.451 0-5.454 0.8208-9.8513 4.0368-5.6679 4.1453-7.0395 4.4937-16.631 4.2251-8.097-0.22674-17.548-1.0005-17.548-1.4367 0-0.14949 0.79291-0.39072 1.7621-0.53608 3.7157-0.55724 3.6797-0.64557-1.3345-3.2783-4.5234-2.375-4.6244-2.4555-3.7759-3.0109 2.0224-1.3235 5.5679-4.5789 7.2764-6.6809 1.2104-1.489 3.5036-5.6289 6.7303-12.149 5.6745-11.467 7.6491-13.909 15.054-21.874l5.3136-5.7153c0.21223-0.10727 3.7894-4.11 4.1726-4.96 0.93962-2.0836 2.3796-3.222 6.5514-5.1788 2.2702-1.0649 3.8968-1.4872 3.8968-1.8773 0-1.1303-3.4342-6.8629-5.5286-9.402-1.1475-1.3912-3.1798-3.4313-4.5163-4.5337-4.3476-3.5861-6.0904-4.4563-17.782-8.8791-2.2844-0.86412-6.2296-3.1251-5.9468-3.408 0.062-0.062 1.4606 0.20767 3.1074 0.59999 1.6467 0.39232 4.7682 0.97693 6.9368 1.2991 17.139 2.5462 26.632 6.871 37.975 17.301l3.7817 3.4772 5.3482-0.29845c7.5796-0.42293 18.189-0.32577 21.355 0.19562 3.7934 0.62483 8.782 2.1168 13.678 4.0907 2.3084 0.93064 4.2943 1.692 4.413 1.692 0.11868 0 0.22871-1.2435 0.24447-2.7634 0.019-1.8491 0.3032-3.4974 0.8585-4.9815 1.8185-4.8603 8.4828-13.115 14.593-18.076 3.4449-2.7968 7.3933-5.564 7.6182-5.3391 0.0954 0.0956-1.1429 1.2318-2.7521 2.525-3.931 3.159-9.0192 8.3175-10.763 10.912-3.2983 4.9066-4.0902 10.054-2.6616 17.301 0.42845 2.1736 0.85448 4.0275 0.94675 4.1198 0.0926 0.0919 1.496 0.508 3.1194 0.92391 3.8233 0.97943 5.2348 1.7257 8.6052 4.5494 2.7465 2.301 9.4852 4.072 13.852 3.497 4.059 2.712 6.252 7.4028 8.4746 10.837z" fill="#a9a9a9" stroke="#a9a9a9" stroke-width=".38101"/>
   <path d="m209.29 211.24c17.905 7.7793 29.94 10.403 59.318 12.931 4.8738 0.41913 10.855 0.89148 13.292 1.0491 4.2676 0.27633 4.3528 0.29894 2.3117 0.6068-10.456 1.5785-13.159 2.0695-17.533 3.186-10.958 2.797-19.736 6.75-29.685 13.368l-7.866 4.0759-4.25 0.51132c-5.019 0.21907-6.0368 0.38898-10.017 1.6727-5.7311 1.8484-9.3131 2.5272-13.339 2.5272-5.2399 0-7.0349-1.0825-9.2619-5.5864-1.6384-3.3141-3.0224-4.7871-5.9777-6.3621-4.5707-2.4362-11.92-3.7422-15.18-2.6971-4.337 1.3905-5.3794 4.8006-4.2296 13.835 0.35846 2.8176 0.59629 5.1758 0.52856 5.2402-0.0667 0.0635-0.87132-0.40235-1.7847-1.0376v6.6e-4c-3.8054-2.6464-9.8006-3.4277-14.324-1.8662-1.1632 0.40158-2.162 0.6829-2.2195 0.62538-0.0565-0.0565 0.52753-2.5157 1.3005-5.4623 2.2371-8.5291 1.9615-14.797-0.65043-14.797-2.9633 0-6.8693 4.0915-10.771 11.281l-1.4219 2.6205-2.1748-2.3489c-1.1958-1.2919-3.823-4.3287-5.8375-6.7489-4.1966-5.0411-7.013-7.555-16.18-14.443-4.2935-3.2265-7.5269-6.0039-9.3872-8.0637-1.5608-1.7282-2.7395-3.2403-2.6193-3.3602 0.11991-0.12025 3.5642 0.10467 7.6537 0.49918 4.1926 0.40463 10.459 0.71422 14.37 0.70956 8.2269-9e-3 9.4592-0.35676 14.491-4.088 1.7104-1.2682 3.751-2.6398 4.5344-3.0481 2.9553-1.5406 7.8171-1.8947 8.8237-0.64289 0.20842 0.25926 0.83839 1.9886 1.3996 3.8426 0.80247 2.6517 1.1721 3.3713 1.7315 3.3713 1.1285 0 1.4929-0.74481 2.6968-5.512 1.5083-5.9719 3.1538-10.402 5.6811-15.293 2.0333-3.9359 7.003-11.367 7.3618-11.008 0.0984 0.0981-0.43538 1.6184-1.186 3.378-2.4411 5.7239-3.0721 8.0074-3.2611 11.801-0.15758 3.1608-0.0514 3.9819 0.87391 6.8298 1.925 5.9179 5.4234 9.9322 8.0754 9.2665 0.59942-0.15067 2.6172-1.7432 4.4841-3.5392 1.8672-1.796 4.0538-3.5437 4.8594-3.8837 2.3395-0.98707 6.1273-1.4367 10.192-0.0926l6.708 2.3805c0.19657-2e-3 4.8739 2.7119 8.4676 4.2734zm-12.784-4.0258c-5.3021-1.2906-10.157 2.6967-10.157 7.678 0 1.938 0.18951 2.5649 1.2522 4.1428 3.5744 5.3079 11.285 5.9516 14.951 0.73504 1.0369-1.4755 1.0288-2.8942 1.0288-5.4144 0-2.562-1.2851-3.8577-2.6366-5.196-0.82883-0.85096-4.4386-1.9454-4.4386-1.9454zm-47.082 14.331c3.8496-2.4414 4.6044-8.2357 1.529-11.739-2.1611-2.4621-7.1722-2.9132-9.8316-0.8846-1.9383 1.4784-2.9324 3.5882-2.9324 6.2232 0 4.5334 2.8708 7.4655 7.3414 7.4978 1.7134 0.0122 2.4891-0.20614 3.8936-1.0969z" stroke="#000" stroke-width=".38589"/>
   <path transform="scale(.26458)" d="m572.05 1044.3c-13.297-5.4699-21.23-12.438-26.882-23.613-14.476-28.623 2.2146-57.799 36.678-64.513 22.269-4.3383 47.552 4.6378 57.574 24.994 3.7587 7.635 4.4643 10.709 4.4643 19.451 0 26.775-22.517 47.096-52.091 47.01-8.9276-0.026-13.647-0.8216-19.743-3.3292z" stroke="#000" stroke-width="1.4308"/>
  </g>
 </g>
 <g transform="translate(-15.497 -112.17)" fill="#696969">
  <path d="m59.481 268.53c-0.72292-0.36846-3.5294-2.8594-6.2366-5.5355-8.1128-8.0195-8.3982-8.1446-19.638-8.6047-5.1444-0.2106-8.621-0.52985-9.9375-0.91259-2.4392-0.70908-4.4981-2.4707-5.9015-5.0492l-0.36473-1.9799 1.1223-0.173c0.98108-0.14713 5.1954-0.0674 9.3651 0.17716 10.986 0.64432 13.062 0.10374 13.062-3.4008 0-2.0049-2.48-4.0421-7.2585-5.9627-5.2485-2.1094-8.2545-3.918-10.909-6.5634-3.3294-3.3179-4.1517-6.3139-2.2539-8.2117 1.2763-1.2763 2.1265-0.86255 10.332 5.0274 10.24 7.3504 15.004 8.6526 15.003 4.1007-2.64e-4 -1.726-0.97824-3.7837-6.7242-14.149-4.2093-7.5934-4.5033-8.2522-3.8406-8.6069 1.1178-0.5982 3.8731 0.27626 5.6424 1.7907 1.1323 0.96922 2.0603 2.403 3.4606 5.3469 1.0523 2.2124 2.5978 5.4506 3.4342 7.196 1.6745 3.494 4.8891 7.2209 6.2283 7.2209 0.43295 0 1.1835-0.32094 1.668-0.71321 1.3663-1.1063 1.0981-3.613-1.4605-13.65-3.0118-11.815-2.9203-11.192-1.8056-12.306 2.1749-2.1749 5.6166-0.2207 8.0405 4.5655 1.031 2.0358 1.1679 2.8566 1.6057 9.6308 0.41603 6.4367 1.5851 12.356 2.7269 13.808 0.5796 0.73685 1.0801 0.93324 2.3785 0.93324 2.8489 0 3.6908-1.074 6.0745-7.7485 2.0102-5.6286 6.7958-5.0542 7.9059 0.94888 0.34313 1.8555-0.29213 3.2369-2.6022 5.6588-1.7835 1.8698-2.0531 2.3747-2.5288 4.7352-0.34479 1.7111-0.48709 4.3073-0.40378 7.367 0.33245 12.21 0.36937 11.665-0.97243 14.363-0.67197 1.3513-1.9974 3.3923-2.9453 4.5357-0.94794 1.1434-2.2165 2.6932-2.819 3.4441-2.1293 2.6536-6.8876 4.0224-9.4474 2.7178z"/>
  <path d="m144.79 221.13c-2.8814-2.1953-3.2814-6.3388-0.87472-9.0597 1.3275-1.5008 3.0166-2.0824 4.6256-1.5926 1.3393 0.40771 2.7377 1.6533 3.3438 2.9782 0.47162 1.0311 0.60534 3.2854 0.26892 4.5334-0.32216 1.1952-1.5138 2.846-2.449 3.3927-1.2975 0.75857-3.7534 0.6326-4.9146-0.25212z"/>
  <path d="m194.61 221.79c-2.974-1.9195-3.7536-6.0236-1.6892-8.8932 1.5388-2.139 3.7732-2.9239 6.037-2.1207 2.4284 0.86162 3.8884 2.9638 3.9052 5.6231 0.0159 2.5074-1.1918 4.6481-3.2027 5.6765-1.3033 0.66656-3.7932 0.52573-5.0503-0.28565z"/>
 </g>
 <path d="m61.179 109.59c-0.69255 0.0988-1.2368 0.49457-1.7069 1.1379s-0.86572 1.5333-1.1626 2.3497c-0.2969 0.81643-0.4947 1.5582-0.59369 2.2757-0.09899 0.71752-0.09899 1.4098 0.39607 1.8057 0.49506 0.39595 1.4841 0.49485 2.3745 0.44535 0.89042-0.0495 1.6822-0.24744 2.3252-0.86574 0.64294-0.6183 1.1379-1.6577 1.4099-2.5479 0.27201-0.89035 0.3215-1.6327 0.17312-2.325s-0.49483-1.3357-1.0883-1.7562c-0.59345-0.42048-1.4346-0.61834-2.1271-0.51954z" fill="#e9967a" stroke-width="1.1106"/>
 <g transform="translate(-15.497 -112.17)" fill="#e9967a">
  <path d="m63.846 230.46c-0.15746-0.55113-4.3152-2.252-4.3152-2.252-1.0394 0.59846-2.0786 1.1968-2.7716 1.685-0.69304 0.48823-1.0394 0.86609-1.7958 0.89763-0.75641 0.0316-1.921-0.2832-2.9448-0.72422s-1.9056-1.0079-2.7087-1.1182c-0.8031-0.11033-1.5275 0.23613-2.0001 0.5511s-0.69296 0.59833-0.86636 1.2761-0.29926 1.7476-0.61418 2.4564c-0.31491 0.7088-0.81874 1.0552-1.4332 1.1813-0.61447 0.12609-1.3385 0.0317-2.0473 0.20484-0.70877 0.1732-1.4015 0.61403-1.9214 1.2756-0.51989 0.6616-0.86621 1.5432-0.96077 2.2205-0.09455 0.67738 0.06288 1.1497 0.42521 1.7641s0.9291 1.3701 1.2756 2.1417c0.34648 0.77164 0.47247 1.559 0.37804 2.2048-0.09442 0.64573-0.40932 1.1496-0.70869 1.9216-0.29937 0.77202-0.58268 1.8108-0.72446 2.6929s-0.14178 1.6063 0.12603 2.3468 0.80308 1.4961 1.3701 2.1261c0.56702 0.63001 1.1654 1.1339 1.9372 1.3544s1.7168 0.15747 2.5042-0.0158c0.78738-0.17326 1.4175-0.45683 1.7953-1.0079 0.37781-0.55108 0.50386-1.3704 0.29918-2.1734-0.20468-0.80293-0.74034-1.5907-1.386-2.2048s-1.4016-1.0552-1.433-1.4332c-0.03134-0.37809 0.66154-0.69304 1.2756-1.1024 0.61406-0.40941 1.1498-0.91361 1.4489-1.6221s0.36212-1.6224 0.23614-2.4726c-0.12598-0.85025-0.44106-1.6379-0.50399-2.2994s0.12609-1.1971 0.4882-1.4017c0.36211-0.20459 0.89789-0.0785 1.5278-0.0786 0.62989-3e-5 1.3546-0.12606 1.9215-0.40956 0.56686-0.28351 0.9765-0.72466 1.3229-1.1183 0.34638-0.39362 0.63004-0.74031 0.99204-0.83471s0.80334 0.0632 1.5591 0.37813c0.75576 0.3149 1.8271 0.78754 2.9452 1.0395 1.1182 0.25196 2.2837 0.28347 3.1814-0.0631 0.89762-0.34655 1.5277-1.0712 1.9686-1.9057s0.69293-1.7798 0.66141-2.8033c-0.03151-1.0234-0.3466-2.1262-0.50406-2.6774z"/>
  <path transform="matrix(.96375 0 0 1.1736 .3605 -44.225)" d="m22.804 248.65c0.69289 0.22047 2.0791 0.66153 3.2287 1.2284 1.1496 0.56692 2.0631 1.26 2.5985 1.8426 0.53542 0.58262 0.69291 1.0551 0.55128 1.3701-0.14163 0.31503-0.58246 0.47247-1.3546 0.48824-0.77214 0.0158-1.8738-0.11012-2.8346-0.29913-0.96081-0.189-1.7796-0.44093-2.6459-0.88198-0.86634-0.44104-1.7796-1.0709-2.4096-1.5906s-0.97647-0.92921-1.0892-1.2995c-0.11276-0.37028-0.01416-0.64024 0.42863-0.8415 0.44279-0.20127 1.6385-0.2192 2.2362-0.22817 0.59772-9e-3 0.59772-9e-3 1.2906 0.21153z"/>
  <path transform="translate(.52917 -.52917)" d="m20.616 226.32c0.17325-0.50397 0.36224-1.0079 0.66144-1.37s0.70893-0.58271 1.5745-0.3781c0.86558 0.20461 2.1895 0.83505 3.1816 1.5279 0.99209 0.69289 1.6536 1.4489 2.2363 2.3623 0.5827 0.91341 1.0867 1.9843 1.197 2.8189 0.11033 0.83463-0.17312 1.433-0.5669 1.7954-0.39378 0.36238-0.89748 0.4883-1.6696 0.26771-0.77213-0.2206-1.8109-0.78722-2.8347-1.5117-1.0238-0.72451-2.0316-1.6064-2.7403-2.2994-0.70873-0.69299-1.1182-1.197-1.2441-1.701-0.12594-0.5041 0.03156-1.0081 0.20481-1.5121z"/>
  <path transform="matrix(.95468 0 0 .78768 1.1225 44.793)" d="m37.105 208.6c-0.22033 0.14164-0.6613 0.42512-0.66133 1.1027-2.8e-5 0.67761 0.44063 1.7478 0.94466 2.6141 0.50402 0.86629 1.0709 1.5277 1.6379 2.3309s1.1339 1.7481 1.4332 2.4252 0.33074 1.0866 0.67747 1.4648c0.34673 0.37823 1.0078 0.7245 1.622 0.59839s1.1813-0.72466 1.4174-1.4646c0.23612-0.73998 0.14158-1.6223-0.34654-2.8032-0.48811-1.1809-1.3703-2.6617-2.2522-3.7168s-1.7639-1.6851-2.4725-2.0631c-0.70865-0.37797-1.2441-0.50396-1.5119-0.56697-0.26783-0.063-0.26782-0.063-0.48816 0.0786z"/>
  <path transform="matrix(.96458 0 0 .83316 1.381 34.851)" d="m54.712 202.76c-0.18885 0.15737-0.56682 0.47235-0.70868 1.0081-0.14186 0.53576-0.04744 1.2911 0.17309 1.9842s0.5669 1.3229 0.8819 2.0631c0.315 0.74024 0.59844 1.5906 0.64575 2.2835 0.04731 0.69293-0.14164 1.2283-0.14166 1.9058s0.18885 1.496 0.64569 2.2364c0.45684 0.74039 1.1811 1.4017 1.953 1.7009 0.77183 0.29921 1.5908 0.23621 2.2049-0.0631 0.61411-0.29927 1.0237-0.83492 1.2441-1.4804 0.22037-0.64549 0.25189-1.4019 0.12592-2.4568s-0.40955-2.4098-0.94496-3.6853-1.323-2.4726-2.1891-3.4332c-0.86613-0.96063-1.8111-1.6851-2.441-2.0159-0.62983-0.33077-0.9448-0.26778-1.1024-0.23625-0.15764 0.0315-0.15764 0.0315-0.34649 0.1889z"/>
 </g>
 <g fill="#fff">
  <path transform="scale(.26458)" d="m476.85 583.59c-1.3708-0.46384-2.4923-2.616-2.4923-4.7825 0-2.4998-0.85232-3.4124-2.3326-2.4975-1.5925 0.98423-1.9068 0.33186-0.99044-2.0561 0.73822-1.9238 0.68012-4.5383-0.12909-5.8101-0.80922-1.2718-1.5357-2.761-1.6144-3.3093-1.0823-7.5405-3.8796-14.318-6.5537-15.878-1.9466-1.1359-2.2966-1.9703-0.84109-2.0057 1.5983-0.0389 2.4813-3.1001 2.4617-8.5344-0.0331-9.1926-1.3282-12.239-5.9509-13.999-2.3822-0.90683-2.2808-1.1705 0.49846-1.2959 2.5798-0.11639 3.4892-1.8571 3.4892-6.679 0-8.6893 15.618-35.206 28.07-47.658 22.318-22.318 29.629-4.3368 17.541 43.141-2.2235 8.7327-3.6506 17.929-3.1712 20.437 0.47934 2.5075 0.12994 4.559-0.77644 4.559-3.1062 0-15.946 12.553-19.167 18.739-1.7711 3.4012-3.744 11.199-4.3842 17.329-0.80108 7.6696-1.9412 10.882-3.6563 10.301z"/>
  <path transform="scale(.26458)" d="m574.43 607.43c3.9134-4.3317 8.2197-11.222 9.5695-15.312 3.6889-11.177 1.8139-30.586-3.8382-39.732-2.5974-4.2026-4.8714-10.455-5.0534-13.894-0.18204-3.4389-1.0561-14.868-1.9423-25.398-3.0008-35.657 6.3814-45.969 37.778-41.522 27.617 3.911 46.497 15.353 55.877 33.864 2.6024 5.1356 7.4717 11.643 10.821 14.461 11.536 9.7066 35.772 9.4183 70.289-0.83613 16.713-4.9651 54.872-10.952 56.897-8.9269 0.36601 0.36599-14.623 8.4492-33.309 17.963s-33.974 18.151-33.974 19.194-1.8144 1.897-4.0319 1.897c-4.8108 0-34.406 14.582-39.545 19.484-1.9858 1.8944-4.8816 3.6994-6.4352 4.0109-5.9474 1.1928-13.791 4.977-13.791 6.6538 0 0.96356-1.3747 1.7519-3.055 1.7519s-3.7755 1.9478-4.6562 4.3285c-1.012 2.7358-2.1124 3.5015-2.9903 2.0809-2.3326-3.7743-7.2287-0.32312-7.4741 5.2684-0.14822 3.3772-0.55875 4.0166-1.1431 1.7805-1.2634-4.8345-6.7409-4.3813-8.0611 0.667-0.83402 3.1893-1.4952 3.5372-2.842 1.4954-1.4151-2.1454-2.2687-1.991-4.4066 0.79737-1.4583 1.902-3.1939 2.9158-3.8569 2.2528-0.66295-0.66295-3.4902-0.63191-6.2828 0.069-3.5279 0.88544-5.0867 2.6318-5.1079 5.7224-0.0224 3.2604-0.48889 3.7247-1.7471 1.7389-1.9929-3.1454-16.607-1.4555-20.692 2.3927-1.349 1.2707-6.0416 2.3314-10.428 2.3571s-11.51 0.77114-15.83 1.6566l-7.8544 1.6098z"/>
  <path transform="scale(.26458)" d="m663.71 413.42c-24.769-14.37-19.084-48.475 8.8368-53.006 15.058-2.4436 33.907 9.7337 36.151 23.356l1.1379 6.9062-2.9367-6.3294c-3.8385-8.273-11.334-13.011-20.585-13.011-6.0496 0-8.7273 1.3924-14.235 7.4018-6.2714 6.8432-6.7098 8.1658-5.8103 17.527 0.7853 8.1728 2.1817 11.205 7.242 15.727 5.9249 5.2939 6.021 5.5989 1.7515 5.5556-2.4847-0.0252-7.6836-1.8825-11.553-4.1273z"/>
  <path transform="scale(.26458)" d="m477.87 412.48c-12.247-6.6452-15.804-29.328-6.3594-40.552 9.4082-11.181 27.222-12.063 38.056-1.8845 5.3511 5.0271 6.4683 9.9183 1.1761 5.149-5.6016-5.0481-13.385-6.1046-19.953-2.7083-6.2068 3.2097-12.446 13.781-12.446 21.087 0 5.9401 5.0901 15.198 10.401 18.918l4.4427 3.1118-4.9297-0.0798c-2.7114-0.0439-7.3858-1.4125-10.388-3.0413z"/>
  <path transform="scale(.26458)" d="m663.16 412.98c-4.1715-2.5253-9.3246-7.2311-11.451-10.457-7.5307-11.424-3.2471-29.882 8.7607-37.75 16.792-11.003 45.124 0.15689 48.228 18.996l1.1379 6.9062-2.8924-6.2241c-11.48-24.703-46.993-10.221-40.303 16.436 0.72515 2.8892 3.8952 7.8298 7.0444 10.979 5.4486 5.4486 5.516 5.7255 1.3933 5.7158-2.383-6e-3 -7.7458-2.0763-11.917-4.6016z"/>
  <path transform="scale(.26458)" d="m477.87 412.48c-12.189-6.6138-15.805-29.327-6.4397-40.457 9.7165-11.547 26.98-12.461 38.099-2.0153 6.7462 6.3377 5.7954 8.3181-1.777 3.7012-3.564-2.173-8.0188-3.9542-9.8997-3.9583-5.2972-0.0115-17.088 11.451-18.529 18.014-1.7359 7.9034 2.1416 18.891 8.4053 23.818l5.1091 4.0188-4.755-0.0798c-2.6152-0.0439-7.211-1.4125-10.213-3.0413z"/>
 </g>
</svg>
