<svg version="1.1" viewBox="0 0 120 120" xmlns="http://www.w3.org/2000/svg">
 <g transform="translate(-30.416 -11.645)">
  <g transform="matrix(.94948 0 0 .98858 -131.32 -3.3262)" fill="none" stroke="#000" stroke-linecap="round">
   <g>
    <path d="m188.78 87.325c0.24837 6.2922 1.867 12.527 4.7107 18.145 6.2196 12.288 18.515 21.309 32.103 23.554" stroke-width="1.3"/>
    <path d="m186.16 90.989c1.6013 4.9926 3.7716 9.8025 6.4554 14.307 7.375 12.377 18.713 22.352 31.928 28.09" stroke-width="1.4"/>
    <path d="m184.07 88.896c-0.0182 6.8949 1.6748 13.788 4.8852 19.89 4.5614 8.6696 12.071 15.573 20.588 20.413 5.1895 2.9493 10.783 5.1867 16.575 6.6299" stroke-width="1.4"/>
    <path d="m180.75 91.687c1.4957 5.4705 3.7962 10.72 6.8044 15.528 7.9259 12.667 20.91 22.069 35.418 25.647" stroke-width="1.9"/>
   </g>
   <path d="m185.81 89.768c-0.78435 1.8225-1.2584 3.7782-1.3958 5.7576-0.1466 2.1129 0.0911 4.2518 0.69789 6.281" stroke-width="1px"/>
   <path d="m171.85 104.95 11.69-17.622 17.971 11.341" stroke-width="3"/>
   <g>
    <path d="m283.77 62.378c7.9325 36.778-10.817 55.888-10.817 55.888" stroke-width="1.7"/>
    <path d="m288.45 58.773c6.8508 50.48-14.783 62.378-14.783 62.378" stroke-width="1.2"/>
    <path d="m285.09 61.155c3.0354 4.5178 4.9676 9.7711 5.5831 15.179 0.80286 7.0544-0.63325 14.262-3.4894 20.762-3.0015 6.8308-7.5729 12.966-13.26 17.796" stroke-width="1.5"/>
    <path d="m288.92 58.712c0.92278 1.2059 1.741 2.4917 2.4426 3.8384 3.6593 7.0242 3.9718 15.328 3.1405 23.205-0.98619 9.3441-3.5443 18.68-8.7236 26.52-1.9379 2.9333-4.2276 5.634-6.8044 8.0257" stroke-width="1.4"/>
    <path d="m270.61 100.76 3.4894 20.413 21.111-2.966" stroke-width="3"/>
   </g>
   <g>
    <path d="m199.05 39.273c31.356-22.687 44.742-14.908 63.109-10.324" stroke-width="1.4"/>
    <path d="m203.78 44.474c18.226-16.07 45.081-15.126 45.081-15.126" stroke-width="1.3"/>
    <path d="m265.74 33.893c-41.105-12.98-54.085-2.1634-54.085-2.1634" stroke-width="1.6"/>
    <path d="m265.38 37.499c-39.663-16.226-61.971 4.827-61.971 4.827" stroke-width="1.3"/>
    <path d="m258.39 16.664 8.0257 19.715-18.145 8.5491" stroke-width="3"/>
    <path d="m265.89 36.554c-3.6635-1.919-7.3274-3.8382-12.329-5.1468-5.0016-1.3086-11.34-2.0064-17.185-1.7158s-11.195 1.57-16.255 3.6928c-5.0602 2.1228-9.828 5.0882-14.598 8.0549" stroke-width="1.2"/>
   </g>
  </g>
 </g>
</svg>
